<svg width="398" height="398" viewBox="0 0 398 398" fill="none" xmlns="http://www.w3.org/2000/svg">
<g filter="url(#filter0_ng_2047_32)">
<rect x="15.6001" y="15.6001" width="366" height="366" fill="#131B0F"/>
</g>
<g filter="url(#filter1_dg_2047_32)">
<ellipse cx="199.1" cy="198.6" rx="160.5" ry="110" fill="url(#paint0_radial_2047_32)"/>
</g>
<g filter="url(#filter2_ng_2047_32)">
<path d="M70.854 212.42C70.1795 210.178 69.1951 207.134 67.9009 203.288C66.6066 199.441 65.3306 195.868 64.0728 192.569C62.8332 189.269 61.9217 187.219 61.3384 186.417L58.9595 186.225C58.285 184.202 57.9478 182.497 57.9478 181.112C58.5858 179.526 59.5428 178.323 60.8188 177.502C62.0949 176.664 63.6444 176.245 65.4673 176.245C68.2746 176.245 70.3892 177.466 71.811 179.909C72.7043 181.44 73.4608 183.363 74.0806 185.678C74.7186 187.975 75.3384 190.746 75.9399 193.991C77.1248 200.17 77.854 205.302 78.1274 209.385L78.7563 209.276C79.2303 208.237 79.8319 206.122 80.561 202.932C81.2902 199.742 81.9191 196.452 82.4478 193.061C82.9764 189.652 83.2407 187.091 83.2407 185.377L79.6313 184.858C79.3761 183.946 79.1938 183.153 79.0845 182.479C78.9751 181.786 78.9113 181.039 78.8931 180.237C78.8931 180.164 78.8931 180.064 78.8931 179.936C78.9113 179.808 78.9113 179.653 78.8931 179.471C79.2941 178.997 79.9595 178.505 80.8892 177.995C81.8188 177.484 82.8944 177.056 84.1157 176.709C85.3553 176.363 86.5949 176.19 87.8345 176.19C90.3319 176.19 92.1639 176.81 93.3306 178.049C94.4972 179.271 95.0806 181.148 95.0806 183.682C95.0806 185.432 94.8436 187.51 94.3696 189.917C93.8957 192.323 93.2303 194.811 92.3735 197.381C91.7537 199.241 90.8241 201.565 89.5845 204.354C88.3449 207.125 87.0142 209.786 85.5923 212.338C84.1886 214.89 82.9217 216.814 81.7915 218.108C81.2629 218.454 80.6248 218.709 79.8774 218.874C79.13 219.056 78.3826 219.147 77.6353 219.147C76.5962 219.147 75.5298 219.001 74.436 218.709C73.3605 218.436 72.4035 218.044 71.5649 217.534C70.7446 217.023 70.1704 216.44 69.8423 215.784L70.854 212.42ZM97.4868 202.44C97.4868 199.14 98.0155 196.278 99.0728 193.854C100.13 191.43 101.752 189.552 103.94 188.221C106.127 186.872 108.871 186.198 112.17 186.198C115.816 186.198 118.678 186.881 120.756 188.249C122.834 189.597 124.284 191.475 125.104 193.881C125.943 196.288 126.362 199.232 126.362 202.713C126.362 205.867 125.806 208.683 124.694 211.163C123.6 213.624 121.941 215.574 119.717 217.014C117.512 218.436 114.805 219.147 111.596 219.147C106.638 219.147 103.047 217.625 100.823 214.581C98.5988 211.518 97.4868 207.471 97.4868 202.44ZM112.717 211.135C113.647 211.135 114.212 211.062 114.413 210.917C114.832 210.187 115.151 209.157 115.37 207.827C115.588 206.496 115.698 205.056 115.698 203.506C115.698 202.084 115.607 200.754 115.424 199.514C115.242 198.256 114.987 197.272 114.659 196.561C114.458 196.324 114.057 196.151 113.456 196.042C112.854 195.914 112.198 195.85 111.487 195.85C110.557 195.85 109.919 195.95 109.573 196.151C108.661 197.719 108.206 199.897 108.206 202.686C108.206 203.999 108.306 205.338 108.506 206.706C108.707 208.073 108.962 209.312 109.272 210.424C109.491 210.661 109.937 210.844 110.612 210.971C111.286 211.081 111.988 211.135 112.717 211.135ZM129.862 202.713C129.862 199.56 130.39 196.743 131.448 194.264C132.505 191.785 134.137 189.825 136.342 188.385C138.566 186.927 141.337 186.198 144.655 186.198C145.785 186.198 147.079 186.271 148.538 186.417C150.014 186.544 151.427 186.745 152.776 187.018L153.323 187.401C154.143 187.966 154.745 188.422 155.127 188.768C155.528 189.096 155.948 189.561 156.385 190.163C156.385 191.147 156.249 192.505 155.975 194.237C155.72 195.95 155.392 197.545 154.991 199.022C154.59 200.499 154.207 201.446 153.842 201.866C153.241 202.176 152.265 202.331 150.917 202.331C150.26 202.331 149.64 202.285 149.057 202.194C148.492 202.084 148.064 201.948 147.772 201.784L147.198 196.725C146.924 196.415 146.295 196.169 145.311 195.987C144.345 195.786 143.452 195.686 142.631 195.686C142.376 195.686 142.139 195.704 141.92 195.741C141.501 196.597 141.182 197.691 140.963 199.022C140.745 200.353 140.635 201.711 140.635 203.096C140.635 205.101 140.963 206.806 141.62 208.209C142.276 209.595 143.616 210.288 145.639 210.288C146.642 210.288 147.626 210.124 148.592 209.795C149.577 209.467 150.816 208.966 152.311 208.292C152.931 208 153.396 207.79 153.706 207.663C154.435 208.392 155.009 209.157 155.428 209.959C155.847 210.762 156.121 211.792 156.249 213.049C155.082 214.417 153.441 215.775 151.327 217.124C149.23 218.472 146.778 219.147 143.971 219.147C140.982 219.147 138.42 218.427 136.288 216.987C134.173 215.528 132.569 213.56 131.475 211.081C130.4 208.583 129.862 205.794 129.862 202.713ZM168.471 200.581C169.547 200.581 170.732 200.69 172.026 200.909C173.338 201.127 174.542 201.392 175.635 201.702V200.854C175.635 200.289 175.617 199.66 175.581 198.967C175.562 198.275 175.526 197.819 175.471 197.6C175.307 197.29 174.833 196.971 174.049 196.643C173.284 196.315 172.026 196.151 170.276 196.151C169.2 196.151 168.088 196.288 166.94 196.561C165.81 196.816 164.552 197.163 163.167 197.6C162.419 196.361 161.818 195.185 161.362 194.073C160.924 192.943 160.706 191.812 160.706 190.682C160.706 190.336 160.733 189.989 160.788 189.643C163.741 187.346 167.56 186.198 172.245 186.198C174.833 186.198 177.13 186.489 179.135 187.073C181.14 187.656 182.79 188.786 184.084 190.463C185.379 192.14 186.026 194.519 186.026 197.6C186.026 200.608 185.67 203.525 184.959 206.35C184.267 209.157 183.911 210.588 183.893 210.643L187.858 208.948C188.387 209.513 188.851 210.206 189.252 211.026C189.672 211.828 189.936 212.758 190.045 213.815C189.79 214.362 189.234 215.064 188.377 215.92C187.521 216.759 186.472 217.506 185.233 218.163C183.993 218.819 182.699 219.147 181.35 219.147C179.837 219.147 178.689 218.7 177.905 217.807C177.139 216.914 176.756 215.756 176.756 214.334C176.756 213.532 176.875 212.721 177.112 211.901L176.292 211.655C175.781 214.535 174.696 216.504 173.038 217.561C171.379 218.618 169.547 219.147 167.542 219.147C166.229 219.147 164.962 218.782 163.741 218.053C162.519 217.306 161.526 216.23 160.76 214.827C159.995 213.405 159.612 211.746 159.612 209.85C159.612 206.824 160.368 204.527 161.881 202.959C163.394 201.374 165.591 200.581 168.471 200.581ZM171.588 210.999C172.044 210.907 172.582 210.652 173.202 210.233C173.84 209.814 174.405 209.312 174.897 208.729C175.389 208.146 175.681 207.59 175.772 207.061L175.608 206.405C174.642 206.277 173.612 206.213 172.518 206.213C171.588 206.213 170.95 206.286 170.604 206.432C170.021 207.088 169.729 207.818 169.729 208.62C169.729 209.203 169.875 209.732 170.167 210.206C170.476 210.68 170.95 210.944 171.588 210.999ZM192.561 202.057C192.561 195.312 192.734 189.087 193.081 183.381L189.991 182.834C189.553 181.157 189.334 179.353 189.334 177.42C189.608 177.074 190.118 176.646 190.866 176.135C191.613 175.625 192.479 175.178 193.463 174.795C194.466 174.413 195.459 174.221 196.444 174.221C198.686 174.221 200.354 174.795 201.448 175.944C202.542 177.092 203.088 178.851 203.088 181.221C203.088 182.625 202.961 184.794 202.706 187.729C202.469 190.646 202.122 193.462 201.667 196.178L200.901 200.827L201.776 201.127L202.706 197.518C203.581 194.146 204.902 191.42 206.67 189.342C208.457 187.246 210.69 186.198 213.37 186.198C215.375 186.198 217.006 186.635 218.264 187.51C219.54 188.367 220.461 189.506 221.026 190.928C221.591 192.332 221.874 193.881 221.874 195.577C221.874 197.874 221.655 200.453 221.217 203.315C220.78 206.159 220.196 208.82 219.467 211.299C218.756 213.724 217.571 215.638 215.913 217.042C214.272 218.445 212.221 219.147 209.76 219.147C208.794 219.147 207.555 218.965 206.042 218.6C204.528 218.236 202.851 217.643 201.01 216.823C200.737 217.278 200.427 217.725 200.081 218.163C199.752 218.6 199.461 218.928 199.206 219.147C197.857 219.147 196.726 219.038 195.815 218.819C194.903 218.6 194.22 218.372 193.764 218.135C193.308 217.88 193.081 217.725 193.081 217.67C192.734 213.915 192.561 208.711 192.561 202.057ZM209.241 211.928C209.459 211.928 209.596 211.91 209.651 211.874C210.307 209.413 210.635 205.685 210.635 200.69C210.635 199.833 210.59 199.14 210.499 198.612C210.079 198.083 209.478 197.819 208.694 197.819C208.439 198.038 207.564 199.478 206.069 202.139C204.574 204.782 203.471 206.815 202.76 208.237V209.549C203.763 210.242 204.92 210.816 206.233 211.272C207.545 211.709 208.548 211.928 209.241 211.928ZM224.881 195.03C224.571 193.699 224.371 192.724 224.28 192.104C224.189 191.484 224.143 190.545 224.143 189.288C225.219 188.267 226.376 187.501 227.616 186.991C228.855 186.462 230.25 186.198 231.799 186.198C236.502 186.198 238.854 188.558 238.854 193.28C238.854 194.538 238.736 195.996 238.499 197.655C238.28 199.314 237.961 201.401 237.542 203.917C237.487 204.245 237.341 205.129 237.104 206.569C236.867 208.009 236.703 209.212 236.612 210.178C236.922 210.506 237.305 210.734 237.76 210.862C237.979 210.862 238.48 210.415 239.264 209.522C240.066 208.611 240.923 207.508 241.834 206.213C242.746 204.919 243.493 203.725 244.077 202.631C244.222 200.025 244.423 197.627 244.678 195.44L241.807 194.866C241.57 193.954 241.406 193.152 241.315 192.459C241.224 191.767 241.178 191.028 241.178 190.245L241.206 189.479C241.862 188.64 242.846 187.884 244.159 187.209C245.471 186.535 246.975 186.198 248.67 186.198C253.374 186.198 255.725 188.558 255.725 193.28C255.725 195.194 255.406 197.719 254.768 200.854C254.13 203.971 253.383 207.125 252.526 210.315L255.67 208.948C256.199 209.513 256.664 210.206 257.065 211.026C257.484 211.828 257.749 212.758 257.858 213.815C257.603 214.362 257.047 215.064 256.19 215.92C255.333 216.759 254.285 217.506 253.045 218.163C251.806 218.819 250.512 219.147 249.163 219.147C247.65 219.147 246.483 218.7 245.663 217.807C244.861 216.896 244.459 215.738 244.459 214.334C244.459 213.97 244.551 213.222 244.733 212.092C244.933 210.962 245.097 210.178 245.225 209.741L244.459 209.495C243.548 212.685 242.29 215.091 240.686 216.713C239.1 218.336 237.286 219.147 235.245 219.147C232.31 219.147 230.241 218.181 229.038 216.249C227.834 214.298 227.233 211.883 227.233 209.002C227.233 203.588 227.415 199.068 227.78 195.44L224.881 195.03ZM259.417 182.834C259.143 181.722 258.961 180.802 258.87 180.073C258.778 179.325 258.742 178.469 258.76 177.502C259.143 177.01 259.736 176.518 260.538 176.026C261.358 175.515 262.306 175.087 263.381 174.741C264.475 174.394 265.605 174.221 266.772 174.221C269.051 174.221 270.801 174.795 272.022 175.944C273.243 177.092 273.854 178.788 273.854 181.03C273.854 182.634 273.717 185.213 273.444 188.768C273.17 192.323 272.778 196.105 272.268 200.116C271.758 204.108 271.174 207.599 270.518 210.588L270.573 210.643L274.62 208.948C276.042 210.169 276.871 211.792 277.108 213.815C277.108 213.943 276.698 214.471 275.877 215.401C275.057 216.312 273.972 217.169 272.624 217.971C271.293 218.755 269.762 219.147 268.03 219.147C266.225 219.147 264.758 218.646 263.627 217.643C262.515 216.64 261.987 214.927 262.042 212.502L262.096 207.581C262.114 202.914 262.16 198.712 262.233 194.975C262.324 191.238 262.506 187.383 262.78 183.409L259.417 182.834Z" fill="#CAFFBA"/>
<path d="M279.159 209.823C280.271 210.187 281.282 210.479 282.194 210.698C283.962 203.588 285.976 195.194 288.237 185.514L281.647 184.803C281.228 183.655 281.018 182.351 281.018 180.893C281.018 179.781 281.146 178.696 281.401 177.639C284.044 177.129 287.088 176.764 290.534 176.545C293.997 176.308 296.969 176.19 299.448 176.19C301.234 176.19 302.574 176.199 303.467 176.217L305.19 177.202C308.252 185.605 311.361 196.971 314.514 211.299C314.551 211.445 314.614 211.737 314.706 212.174C314.815 212.612 314.897 213.031 314.952 213.432C315.006 213.815 315.034 214.18 315.034 214.526C315.034 216.057 314.487 217.297 313.393 218.245C311.862 218.846 310.012 219.147 307.842 219.147C306.821 219.147 305.792 219.038 304.752 218.819C303.713 218.6 303.012 218.263 302.647 217.807L302.975 210.752L302.292 207.088C301.107 207.161 299.712 207.198 298.108 207.198C296.394 207.198 294.79 207.143 293.295 207.034L292.967 208.51C292.256 211.682 291.673 213.933 291.217 215.264C290.78 216.595 290.124 217.579 289.249 218.217C288.392 218.855 287.107 219.174 285.393 219.174C284.281 219.174 283.16 219.028 282.03 218.737C280.9 218.463 279.879 218.09 278.967 217.616C278.056 217.142 277.372 216.631 276.917 216.084C276.917 214.772 277.117 213.523 277.518 212.338C277.919 211.153 278.466 210.315 279.159 209.823ZM298.327 185.76H297.069L295.1 199.241H301.225L298.327 185.76ZM321.295 217.26C321.295 216.476 321.259 214.152 321.186 210.288C321.04 204.637 320.967 199.751 320.967 195.631C320.967 191.603 321.04 188.194 321.186 185.405L316.729 184.831C316.456 183.719 316.273 182.798 316.182 182.069C316.091 181.321 316.055 180.465 316.073 179.499C316.437 179.043 317.112 178.56 318.096 178.049C319.099 177.521 320.229 177.083 321.487 176.737C322.763 176.39 323.993 176.217 325.178 176.217C327.293 176.217 329.015 176.691 330.346 177.639C331.695 178.587 332.406 179.954 332.479 181.741C332.515 182.798 332.534 183.7 332.534 184.448C332.534 187.893 332.388 192.049 332.096 196.917C331.805 201.765 331.413 207.499 330.92 214.116L330.647 217.971C329.207 218.773 327.566 219.174 325.725 219.174C324.157 219.174 322.681 218.892 321.295 218.327V217.26Z" fill="#F9F9F9"/>
</g>
<defs>
<filter id="filter0_ng_2047_32" x="9.72748e-05" y="9.72748e-05" width="397.2" height="397.2" filterUnits="userSpaceOnUse" color-interpolation-filters="sRGB">
<feFlood flood-opacity="0" result="BackgroundImageFix"/>
<feBlend mode="normal" in="SourceGraphic" in2="BackgroundImageFix" result="shape"/>
<feTurbulence type="fractalNoise" baseFrequency="0.1428571492433548 0.1428571492433548" stitchTiles="stitch" numOctaves="3" result="noise" seed="923" />
<feComponentTransfer in="noise" result="coloredNoise1">
<feFuncR type="linear" slope="2" intercept="-0.5" />
<feFuncG type="linear" slope="2" intercept="-0.5" />
<feFuncB type="linear" slope="2" intercept="-0.5" />
<feFuncA type="discrete" tableValues="0 0 0 0 0 0 0 0 0 0 0 0 0 0 0 1 1 1 1 1 1 1 1 1 1 1 1 1 1 1 1 1 1 1 1 0 0 0 0 0 0 0 0 0 0 0 0 0 0 0 0 0 0 0 0 0 0 0 0 0 0 0 0 0 0 0 0 0 0 0 0 0 0 0 0 0 0 0 0 0 0 0 0 0 0 0 0 0 0 0 0 0 0 0 0 0 0 0 0 0 "/>
</feComponentTransfer>
<feComposite operator="in" in2="shape" in="coloredNoise1" result="noise1Clipped" />
<feComponentTransfer in="noise1Clipped" result="color1">
<feFuncA type="table" tableValues="0 0.16" />
</feComponentTransfer>
<feMerge result="effect1_noise_2047_32">
<feMergeNode in="shape" />
<feMergeNode in="color1" />
</feMerge>
<feTurbulence type="fractalNoise" baseFrequency="0.15625 0.15625" numOctaves="3" seed="372" />
<feDisplacementMap in="effect1_noise_2047_32" scale="31.200000762939453" xChannelSelector="R" yChannelSelector="G" result="displacedImage" width="100%" height="100%" />
<feMerge result="effect2_texture_2047_32">
<feMergeNode in="displacedImage"/>
</feMerge>
</filter>
<filter id="filter1_dg_2047_32" x="9.4001" y="59.4001" width="379.4" height="278.4" filterUnits="userSpaceOnUse" color-interpolation-filters="sRGB">
<feFlood flood-opacity="0" result="BackgroundImageFix"/>
<feColorMatrix in="SourceAlpha" type="matrix" values="0 0 0 0 0 0 0 0 0 0 0 0 0 0 0 0 0 0 127 0" result="hardAlpha"/>
<feOffset dy="4"/>
<feGaussianBlur stdDeviation="2"/>
<feComposite in2="hardAlpha" operator="out"/>
<feColorMatrix type="matrix" values="0 0 0 0 0 0 0 0 0 0 0 0 0 0 0 0 0 0 0.25 0"/>
<feBlend mode="normal" in2="BackgroundImageFix" result="effect1_dropShadow_2047_32"/>
<feBlend mode="normal" in="SourceGraphic" in2="effect1_dropShadow_2047_32" result="shape"/>
<feTurbulence type="fractalNoise" baseFrequency="0.12658227980136871 0.12658227980136871" numOctaves="3" seed="3863" />
<feDisplacementMap in="shape" scale="58.400001525878906" xChannelSelector="R" yChannelSelector="G" result="displacedImage" width="100%" height="100%" />
<feMerge result="effect2_texture_2047_32">
<feMergeNode in="displacedImage"/>
</feMerge>
</filter>
<filter id="filter2_ng_2047_32" x="56.1478" y="172.421" width="278.186" height="48.5531" filterUnits="userSpaceOnUse" color-interpolation-filters="sRGB">
<feFlood flood-opacity="0" result="BackgroundImageFix"/>
<feBlend mode="normal" in="SourceGraphic" in2="BackgroundImageFix" result="shape"/>
<feTurbulence type="fractalNoise" baseFrequency="0.068965516984462738 0.068965516984462738" stitchTiles="stitch" numOctaves="3" result="noise" seed="9073" />
<feComponentTransfer in="noise" result="coloredNoise1">
<feFuncR type="linear" slope="2" intercept="-0.5" />
<feFuncG type="linear" slope="2" intercept="-0.5" />
<feFuncB type="linear" slope="2" intercept="-0.5" />
<feFuncA type="discrete" tableValues="1 1 1 1 1 1 1 1 1 1 1 1 1 1 1 1 1 1 1 1 1 1 1 1 1 1 1 1 1 1 1 1 1 1 1 1 1 1 1 1 1 1 1 1 1 1 1 1 1 1 1 0 0 0 0 0 0 0 0 0 0 0 0 0 0 0 0 0 0 0 0 0 0 0 0 0 0 0 0 0 0 0 0 0 0 0 0 0 0 0 0 0 0 0 0 0 0 0 0 0 "/>
</feComponentTransfer>
<feComposite operator="in" in2="shape" in="coloredNoise1" result="noise1Clipped" />
<feComponentTransfer in="noise1Clipped" result="color1">
<feFuncA type="table" tableValues="0 0.26" />
</feComponentTransfer>
<feMerge result="effect1_noise_2047_32">
<feMergeNode in="shape" />
<feMergeNode in="color1" />
</feMerge>
<feTurbulence type="fractalNoise" baseFrequency="0.71428573131561279 0.71428573131561279" numOctaves="3" seed="3395" />
<feDisplacementMap in="effect1_noise_2047_32" scale="3.5999999046325684" xChannelSelector="R" yChannelSelector="G" result="displacedImage" width="100%" height="100%" />
<feMerge result="effect2_texture_2047_32">
<feMergeNode in="displacedImage"/>
</feMerge>
</filter>
<radialGradient id="paint0_radial_2047_32" cx="0" cy="0" r="1" gradientUnits="userSpaceOnUse" gradientTransform="translate(199.1 198.6) rotate(90) scale(110 160.5)">
<stop stop-color="#31693A"/>
<stop offset="0.0865385" stop-color="#1A241C"/>
<stop offset="0.192308" stop-color="#27552F"/>
<stop offset="0.331731" stop-color="#0C1B0F"/>
<stop offset="0.475962" stop-color="#318031"/>
<stop offset="0.552885" stop-color="#184318"/>
<stop offset="0.721154" stop-color="#2B8245"/>
<stop offset="0.860577" stop-color="#102F15"/>
<stop offset="0.985577" stop-color="#145F21"/>
</radialGradient>
</defs>
</svg>
